<?xml version="1.0" encoding="utf-8"?>
<!-- Generator: Adobe Illustrator 21.0.2, SVG Export Plug-In . SVG Version: 6.00 Build 0)  -->
<svg version="1.1" xmlns="http://www.w3.org/2000/svg" xmlns:xlink="http://www.w3.org/1999/xlink" x="0px" y="0px"
	 viewBox="0 0 131 43" style="enable-background:new 0 0 131 43;" xml:space="preserve">
<style type="text/css">
	.st0{fill:#FFFFFF;}
	.st1{fill:#F04B4C;}
</style>
<g id="Layer_1">
	<g>
		<path class="st0" d="M20.4,0.8c-0.2-0.1-0.4-0.1-0.6-0.1c-0.2,0-0.5,0-0.8,0c-0.6,0-1,0.2-1.3,0.5c-0.3,0.4-0.6,0.8-0.9,1.2
			c-0.4,0.5-0.8,1.1-1.2,1.8c-0.4,0.6-0.8,1.3-1.1,1.9c-0.3,0.5-0.7,1.1-1.1,1.8C12.9,8.5,12.5,9.2,12,10c-0.5,0.8-0.9,1.6-1.4,2.4
			c-0.5,0.8-0.9,1.6-1.3,2.3c-0.7,1.2-1.4,2.1-2.2,2.8c-0.7,0.7-1.5,1.2-2.3,1.7c-0.2,0.1-0.3,0.2-0.3,0.3c0,0.1,0.1,0.1,0.4,0.1
			c0.8-0.1,1.8-0.2,3-0.3c1.2-0.1,2.3-0.2,3.4-0.2c1.1-0.1,2.1-0.1,3-0.2c0.9-0.1,1.5-0.1,1.9-0.1c0.1,0,0.3,0,0.6,0
			c0.3,0,0.5,0,0.8,0c0.3,0,0.5,0,0.8,0c0.2,0,0.4,0,0.5,0.1c0.5,0.1,0.7,0.3,0.7,0.6c0,0.2-0.1,0.4-0.2,0.9c-0.1,0.4-0.3,0.8-0.4,1
			c-0.1,0-0.1-0.1-0.1-0.2c0-0.2,0-0.3-0.1-0.4c0-0.2-0.2-0.3-0.3-0.3c-0.4-0.2-1-0.3-1.5-0.4c-0.6-0.1-1.2-0.2-1.8-0.2
			c-0.6,0-1.2-0.1-1.8-0.1c-0.6,0-1.1,0-1.6,0c-1.7,0-3.2,0-4.4,0.1c-1.2,0.1-2.2,0.1-3,0.2s-1.5,0.2-2,0.3c-0.5,0.1-1,0.2-1.3,0.3
			c-0.1,0-0.2-0.1-0.3-0.2c-0.1-0.1-0.1-0.2-0.1-0.3c0-0.2,0.1-0.3,0.4-0.3c0.5,0,1,0,1.4-0.1c0.4-0.1,0.8-0.2,1.1-0.4
			c0.5-0.3,0.9-0.7,1.4-1.2c0.4-0.5,1-1.3,1.6-2.4c0.6-1,1.3-2.2,2-3.5c0.7-1.3,1.4-2.5,2.1-3.8c0.7-1.3,1.4-2.6,2.1-3.8
			c0.7-1.2,1.3-2.3,1.9-3.3c0.1-0.1,0.2-0.3,0.3-0.3C15.2,1.1,15.3,1,15.5,1c0.6-0.2,1.4-0.4,2.4-0.6c0.9-0.1,1.8-0.2,2.5-0.2
			c0.1,0.1,0.2,0.2,0.2,0.3C20.5,0.6,20.5,0.7,20.4,0.8z"/>
		<path class="st0" d="M37.7,14.2c-0.7,0.8-1.4,1.7-2.3,2.5c-0.8,0.9-1.7,1.6-2.5,2.3c-0.8,0.7-1.7,1.2-2.5,1.7
			c-0.8,0.4-1.6,0.6-2.3,0.6c-0.6,0-1-0.2-1.3-0.5c-0.2-0.3-0.4-0.7-0.4-1.1c0-0.4,0.1-1,0.4-1.7c0.3-0.7,0.6-1.5,1.1-2.3
			c-0.4,0.5-0.8,1.1-1.4,1.6c-0.5,0.6-1,1.1-1.6,1.6c-0.5,0.5-1.1,0.9-1.6,1.2c-0.5,0.3-1,0.5-1.4,0.5c-0.6,0-0.9-0.3-0.9-0.9
			c0-0.7,0.3-1.6,0.8-2.6c0.5-1,1.3-2.1,2.2-3c0.9-1,2-1.8,3.1-2.5c1.2-0.7,2.4-1.1,3.6-1.1c0.1-0.3,0.3-0.5,0.4-0.6
			c0.1-0.1,0.2-0.2,0.4-0.3L33,9.2l0.1,0c-0.2,0.2-0.3,0.3-0.4,0.6c-0.1,0.2-0.3,0.5-0.4,0.7c0.1,0,0.4,0,0.7,0
			c0.3,0,0.5,0.1,0.7,0.1c0.1,0.1,0.2,0.1,0.2,0.2c0,0.1,0,0.1-0.1,0.1c-0.2-0.1-0.4-0.1-0.8-0.1c-0.4,0-0.6,0-0.8,0
			c-1.4,2.4-2.4,4.4-3,5.8c-0.6,1.4-1,2.5-1,3.2c0,0.3,0.1,0.5,0.2,0.7c0.1,0.2,0.4,0.3,0.8,0.3c0.5,0,1-0.2,1.7-0.5
			c0.7-0.3,1.4-0.8,2.1-1.4c0.7-0.6,1.5-1.3,2.3-2.1c0.8-0.8,1.6-1.7,2.3-2.6c0.1-0.1,0.1-0.1,0.2-0.1
			C37.7,14.1,37.7,14.1,37.7,14.2z M30.7,10.8c-1,0-2,0.4-2.9,1.1c-0.9,0.7-1.8,1.6-2.5,2.5c-0.7,1-1.3,1.9-1.7,2.9
			c-0.4,1-0.7,1.7-0.7,2.1c0,0.2,0.1,0.4,0.3,0.4c0.2,0,0.5-0.1,0.8-0.4c0.4-0.2,0.8-0.6,1.3-1c0.5-0.4,1-0.9,1.5-1.4s1-1.1,1.4-1.8
			c0.5-0.7,0.9-1.5,1.4-2.3C30,12.2,30.4,11.5,30.7,10.8L30.7,10.8z"/>
		<path class="st0" d="M45.6,4c-0.2,0.1-0.5,0.2-0.8,0.3c-0.3,0.2-0.5,0.4-0.7,0.6c-0.7,1-1.4,2-2,3c-0.6,1.1-1.3,2.1-1.9,3.1h5.6
			c0.1,0.1,0.1,0.1,0.1,0.2s0,0.1-0.1,0.1c-0.2,0-0.6,0-1.1,0c-0.5,0-1,0-1.6,0.1c-0.6,0-1.2,0.1-1.8,0.1c-0.6,0-1.1,0.1-1.6,0.1
			c-0.8,1.5-1.5,2.8-1.9,3.8c-0.5,1.1-0.7,2-0.7,2.7c0,1.1,0.5,1.6,1.5,1.6c0.5,0,1-0.1,1.6-0.4c0.6-0.3,1.3-0.6,2-1
			c0.1-0.1,0.2-0.1,0.3,0c0.1,0.1,0.1,0.2-0.1,0.2c-1,0.7-2,1.1-2.8,1.4c-0.9,0.3-1.8,0.5-2.7,0.5c-0.5,0-0.9-0.1-1.3-0.4
			c-0.4-0.3-0.5-0.8-0.5-1.5c0-0.6,0.3-1.5,0.8-2.7c0.5-1.2,1.3-2.6,2.4-4.3c-0.4,0-0.8,0.1-1.3,0.1c-0.5,0-0.8,0.1-0.9,0.1
			c-0.2,0-0.2-0.1-0.2-0.2c0.1-0.2,0.3-0.4,0.6-0.6l2.3,0c0.3-0.5,0.6-1,0.9-1.5s0.7-1.1,1-1.7c0.3-0.6,0.7-1.1,1-1.6
			c0.3-0.5,0.7-1,0.9-1.5C43,4.7,43.4,4.5,44,4.2c0.6-0.2,1.1-0.4,1.6-0.6c0.1,0,0.1,0,0.1,0.1C45.7,3.8,45.7,3.9,45.6,4z"/>
		<path class="st0" d="M54.4,14.5c-0.7,0.9-1.5,1.8-2.5,2.7c-0.9,0.8-1.8,1.5-2.6,2c-0.6,0.4-1.2,0.7-1.8,0.9
			c-0.6,0.2-1.2,0.3-1.7,0.3c-0.2,0-0.4,0-0.6,0c-0.2,0-0.5-0.1-0.7-0.2c-0.2-0.1-0.4-0.3-0.5-0.5c-0.1-0.2-0.2-0.5-0.2-0.8
			c0-0.4,0.1-0.9,0.5-1.6c0.3-0.7,0.7-1.4,1.1-2.1c0.4-0.7,0.8-1.4,1.2-2.1c0.4-0.7,0.7-1.2,1-1.5c0.1-0.2,0.4-0.4,0.8-0.6
			c0.4-0.2,0.6-0.2,0.7-0.2c0.1,0,0.2,0,0.2,0.1c0,0.1,0,0.2-0.1,0.3c0,0.1-0.1,0.2-0.2,0.3c-0.4,0.6-0.8,1.3-1.2,2
			c-0.4,0.7-0.8,1.4-1.1,2.1c-0.3,0.7-0.6,1.3-0.8,1.9c-0.2,0.6-0.3,1-0.3,1.4c0,0.4,0.1,0.6,0.3,0.8c0.2,0.2,0.5,0.2,0.8,0.2
			c0.6,0,1.3-0.2,2-0.6c0.7-0.4,1.4-0.9,2.1-1.5c0.7-0.6,1.4-1.2,2-1.8s1.1-1.2,1.4-1.6c0.1-0.1,0.2-0.2,0.2-0.1
			C54.5,14.2,54.5,14.4,54.4,14.5z M52.4,4.5c0,0.4-0.2,0.7-0.5,1.1s-0.7,0.5-1.1,0.5c-0.4,0-0.5-0.2-0.5-0.5c0-0.4,0.1-0.8,0.4-1.1
			c0.3-0.4,0.6-0.5,1.1-0.5C52.2,3.9,52.4,4.1,52.4,4.5z"/>
		<path class="st0" d="M66.3,14.6c-0.5,0.8-1.2,1.5-1.9,2.3c-0.7,0.8-1.5,1.4-2.2,2c-0.8,0.6-1.6,1.1-2.4,1.5
			c-0.8,0.4-1.6,0.6-2.4,0.6c-0.4,0-0.7-0.1-1-0.2c-0.3-0.1-0.5-0.4-0.5-0.8c0-0.4,0.1-1,0.5-1.6c0.3-0.6,0.7-1.3,1.1-2
			c0.4-0.7,0.8-1.5,1.3-2.2c0.4-0.7,0.8-1.4,1.1-2.1c0.1-0.1,0.1-0.3,0-0.4c0-0.1-0.1-0.1-0.3,0c-0.3,0.2-0.7,0.5-1.2,0.9
			c-0.5,0.4-0.9,0.7-1.4,1.1c-0.5,0.4-0.9,0.8-1.4,1.2c-0.4,0.4-0.8,0.8-1.1,1.1c-0.5,0.8-0.9,1.4-1.2,2.1c-0.3,0.6-0.8,1.3-1.3,2.1
			c-0.1,0.2-0.2,0.3-0.3,0.3c-0.2,0-0.3-0.2-0.4-0.5c-0.1-0.3-0.2-0.5-0.2-0.6c0-0.3,0.2-0.6,0.6-1.1c0.4-0.5,0.8-1,1.2-1.6
			c0.5-1,1-2,1.5-3c0.5-1.1,0.9-2,1.3-2.9c0.1-0.1,0.2-0.2,0.4-0.2s0.3,0.1,0.5,0.2c0.1,0.2,0.2,0.3,0.2,0.5c0,0.1-0.2,0.5-0.7,1.2
			c-0.4,0.7-0.9,1.5-1.3,2.5c0.6-0.5,1.2-1,1.9-1.6c0.7-0.6,1.3-1.1,1.9-1.6c0.6-0.5,1.2-0.9,1.6-1.2s0.8-0.5,1-0.5
			c0.1,0,0.2,0.1,0.3,0.2c0.1,0.1,0.2,0.3,0.2,0.4c0,0.1-0.1,0.3-0.2,0.5c-0.3,0.5-0.7,1.1-1.2,1.8c-0.5,0.8-0.9,1.5-1.4,2.3
			c-0.4,0.8-0.8,1.6-1.1,2.3c-0.3,0.7-0.4,1.3-0.4,1.7c0,0.4,0.1,0.6,0.2,0.7c0.2,0.1,0.4,0.2,0.7,0.2c0.5,0,1.1-0.2,1.8-0.6
			c0.7-0.4,1.4-0.9,2.1-1.5c0.7-0.6,1.4-1.2,2.1-2c0.7-0.7,1.2-1.4,1.6-2.1c0.1-0.1,0.1-0.1,0.3-0.1C66.4,14.3,66.4,14.4,66.3,14.6z
			"/>
		<path class="st0" d="M78.8,12.8c-0.5,0.7-1.1,1.3-1.9,1.9c-0.7,0.6-1.6,0.8-2.5,0.8c-0.5,0-1-0.1-1.5-0.4
			c-0.5-0.3-0.9-0.6-1.2-1.1c-0.2,0.5-0.5,1-0.8,1.6c-0.3,0.6-0.7,1.2-1.2,1.8c-0.4,0.6-1,1.2-1.5,1.7c-0.6,0.5-1.1,0.9-1.8,1.3
			c-0.5,0.2-1,0.4-1.4,0.4c-1.1,0-1.6-0.5-1.6-1.4c0-0.5,0.1-1.1,0.3-1.7c0.2-0.6,0.4-1.1,0.7-1.7s0.6-1,1-1.5
			c0.3-0.5,0.7-0.9,1-1.2c0.6-0.7,1.3-1.3,2.2-1.8c0.8-0.5,1.7-0.8,2.6-0.9c0.1-0.2,0.1-0.5,0.3-0.8c0.1-0.3,0.3-0.5,0.6-0.6
			c0.1,0,0.3-0.1,0.4-0.1c0.2,0,0.3-0.1,0.4-0.1c0.1-0.1,0.2-0.1,0.3,0c0.1,0,0.1,0.1,0,0.2c-0.2,0.3-0.4,0.8-0.5,1.3
			c-0.1,0.5-0.2,1.1-0.2,1.7c0,0.8,0.2,1.5,0.5,2.1c0.3,0.5,0.9,0.8,1.6,0.8s1.5-0.3,2.1-0.8c0.6-0.5,1.2-1.1,1.6-1.7
			c0.1-0.1,0.2-0.2,0.3-0.1C78.9,12.5,78.9,12.6,78.8,12.8z M71.4,13.1c-0.1-0.3-0.1-0.6-0.1-0.9c0-0.4,0-0.7,0-1
			c0-0.1-0.1-0.2-0.2-0.2c-0.3,0-0.7,0.1-1,0.3c-0.4,0.2-0.7,0.5-1.1,0.9c-0.4,0.4-0.7,0.8-1.1,1.3c-0.4,0.5-0.7,1-1,1.5
			c-0.4,0.7-0.7,1.4-1.1,2.1c-0.3,0.8-0.5,1.5-0.4,2.2c0,0.2,0,0.4,0.1,0.6C65.5,20,65.7,20,66,20c0.5,0,1.1-0.3,1.7-0.9
			c0.6-0.6,1.2-1.2,1.7-2c0.5-0.8,1-1.5,1.4-2.3C71.1,14.1,71.3,13.5,71.4,13.1z"/>
	</g>
</g>
<g id="Layer_2">
	<g>
		<path class="st0" d="M68.2,38.1h0.2l3-9.6h1.3L69,39.7h-1.6l-3.8-11.2H65L68.2,38.1z"/>
		<path class="st0" d="M74.6,39.7v-1.1h2.8v-5.9h-2.8v-1.1h4v6.9h2.7v1.1H74.6z M77,29.4c0-0.3,0.1-0.5,0.3-0.7
			c0.2-0.2,0.4-0.3,0.7-0.3c0.3,0,0.6,0.1,0.8,0.3s0.3,0.5,0.3,0.7c0,0.3-0.1,0.5-0.3,0.7c-0.2,0.2-0.5,0.3-0.8,0.3
			c-0.3,0-0.5-0.1-0.7-0.3C77.1,30,77,29.7,77,29.4z"/>
		<path class="st0" d="M84.3,32.3c0.5-0.3,1-0.5,1.6-0.6s1.1-0.2,1.7-0.2c0.5,0,1,0.1,1.3,0.3s0.6,0.4,0.8,0.7s0.3,0.6,0.4,0.9
			s0.1,0.7,0.1,1c0,0.4,0,0.8,0,1.3c0,0.5,0,0.9,0,1.4c0,0.5,0,1,0.1,1.5h1.1v1h-2.1L89,38.5h-0.1c-0.1,0.1-0.2,0.2-0.3,0.4
			s-0.3,0.3-0.5,0.4c-0.2,0.1-0.5,0.3-0.8,0.4s-0.7,0.2-1.1,0.2c-0.8,0-1.4-0.2-1.9-0.6s-0.7-1-0.7-1.7c0-0.5,0.1-1,0.4-1.4
			c0.2-0.4,0.6-0.6,1-0.8c0.4-0.2,1-0.3,1.6-0.3c0.6,0,1.4,0,2.1,0.1c0.1-0.5,0.1-0.9,0-1.2c0-0.3-0.1-0.6-0.3-0.8
			c-0.1-0.2-0.3-0.3-0.6-0.4c-0.2-0.1-0.5-0.1-0.9-0.1c-0.5,0-0.9,0.1-1.4,0.2c-0.4,0.1-0.8,0.3-1.2,0.4L84.3,32.3z M86.7,38.8
			c0.3,0,0.6,0,0.8-0.1c0.3-0.1,0.5-0.2,0.7-0.4c0.2-0.1,0.4-0.3,0.5-0.5s0.2-0.3,0.3-0.5v-1.1c-0.6-0.1-1.1-0.1-1.5-0.1
			c-0.5,0-0.9,0.1-1.2,0.2c-0.3,0.1-0.6,0.3-0.8,0.5c-0.2,0.2-0.3,0.5-0.3,0.8c0,0.4,0.1,0.7,0.4,0.9C85.7,38.7,86.1,38.8,86.7,38.8
			z"/>
		<path class="st0" d="M97.5,32.8h-3.9v-1.1h5.2v8.2c0,1.1-0.3,1.9-0.8,2.4c-0.5,0.5-1.3,0.8-2.3,0.8c-0.3,0-0.6,0-0.8-0.1
			c-0.3-0.1-0.5-0.2-0.8-0.3c-0.2-0.1-0.4-0.2-0.6-0.3s-0.3-0.2-0.4-0.3l0.5-1c0.3,0.2,0.6,0.4,1,0.6c0.4,0.2,0.8,0.2,1.1,0.2
			c0.6,0,1.1-0.2,1.4-0.6c0.3-0.4,0.4-1,0.4-1.7V32.8z M96.9,29.4c0-0.3,0.1-0.5,0.3-0.7c0.2-0.2,0.4-0.3,0.7-0.3
			c0.3,0,0.6,0.1,0.8,0.3s0.3,0.5,0.3,0.7c0,0.3-0.1,0.5-0.3,0.7c-0.2,0.2-0.5,0.3-0.8,0.3c-0.3,0-0.5-0.1-0.7-0.3
			C97,30,96.9,29.7,96.9,29.4z"/>
		<path class="st0" d="M110.2,38.7c-0.2,0.2-0.4,0.3-0.7,0.5c-0.3,0.1-0.5,0.3-0.9,0.4c-0.3,0.1-0.6,0.2-1,0.2s-0.7,0.1-1,0.1
			c-0.6,0-1.2-0.1-1.7-0.3c-0.5-0.2-0.9-0.5-1.2-0.8c-0.3-0.4-0.6-0.8-0.8-1.3c-0.2-0.5-0.3-1.1-0.3-1.7c0-0.7,0.1-1.3,0.3-1.8
			s0.5-1,0.8-1.3c0.4-0.4,0.8-0.6,1.3-0.8c0.5-0.2,1.1-0.3,1.7-0.3c0.4,0,0.9,0.1,1.3,0.2s0.8,0.3,1.2,0.7c0.3,0.3,0.6,0.8,0.8,1.3
			c0.2,0.6,0.2,1.3,0.2,2.2h-6.2c0,1,0.3,1.7,0.8,2.2c0.5,0.5,1.2,0.7,2.1,0.7c0.3,0,0.6,0,0.9-0.1s0.6-0.2,0.8-0.2
			c0.3-0.1,0.5-0.2,0.7-0.3c0.2-0.1,0.3-0.2,0.5-0.3L110.2,38.7z M106.9,32.6c-0.4,0-0.7,0-1,0.1c-0.3,0.1-0.6,0.2-0.8,0.4
			c-0.2,0.2-0.4,0.4-0.6,0.7s-0.3,0.6-0.3,1h5c-0.1-0.7-0.3-1.2-0.7-1.6S107.5,32.6,106.9,32.6z"/>
		<path class="st0" d="M112.4,39.7v-1.1h2.2v-5.9h-2.2v-1.1h3l0.3,1h0.1c0.4-0.3,0.8-0.6,1.2-0.8c0.4-0.2,1-0.4,1.6-0.4
			c0.4,0,0.7,0.1,0.9,0.2c0.2,0.1,0.4,0.3,0.5,0.6c0.1,0.3,0.2,0.6,0.2,1c0,0.4,0.1,0.8,0.1,1.3l-1.1,0c0-0.7-0.1-1.2-0.2-1.5
			c-0.1-0.3-0.4-0.5-0.7-0.5c-0.3,0-0.6,0-0.9,0.1s-0.5,0.2-0.7,0.4c-0.2,0.1-0.4,0.3-0.5,0.4c-0.1,0.1-0.2,0.3-0.3,0.4v4.7h3.1v1.1
			H112.4z"/>
		<path class="st0" d="M121.9,35.7c0-1.3,0.3-2.3,1-3.1c0.7-0.8,1.6-1.1,2.9-1.1c0.7,0,1.3,0.1,1.7,0.3c0.5,0.2,0.9,0.5,1.2,0.9
			c0.3,0.4,0.6,0.8,0.7,1.3c0.2,0.5,0.2,1.1,0.2,1.6c0,0.6-0.1,1.2-0.3,1.7c-0.2,0.5-0.4,1-0.8,1.3c-0.3,0.4-0.7,0.6-1.2,0.8
			c-0.5,0.2-1,0.3-1.7,0.3c-0.7,0-1.2-0.1-1.7-0.3c-0.5-0.2-0.9-0.5-1.2-0.9c-0.3-0.4-0.6-0.8-0.7-1.3
			C121.9,36.8,121.9,36.3,121.9,35.7z M123.2,35.7c0,0.4,0,0.7,0.1,1.1c0.1,0.4,0.2,0.7,0.4,1s0.5,0.5,0.8,0.7
			c0.3,0.2,0.7,0.3,1.2,0.3c0.9,0,1.5-0.3,1.9-0.8s0.6-1.3,0.6-2.3c0-0.4,0-0.8-0.1-1.1c-0.1-0.4-0.2-0.7-0.4-1
			c-0.2-0.3-0.5-0.5-0.8-0.7c-0.3-0.2-0.7-0.3-1.2-0.3c-0.9,0-1.5,0.3-1.9,0.8S123.2,34.7,123.2,35.7z"/>
	</g>
</g>
<g id="Layer_4">
	<g>
		<path class="st1" d="M106.2,14.2c-0.4,0.2-0.8,0.4-1.2,0.6c-1.3,0.6-2.6,1.2-3.9,1.7c-1.5,0.5-3,0.9-4.6,1.2
			c-1,0.2-2.1,0.4-3.1,0.3c-0.3,0-0.7,0-1-0.1c-0.2-0.1-0.3-0.1-0.5-0.3c-1.3-1.1-2.4-2.3-3.6-3.5c-0.9-0.9-1.7-1.8-2.5-2.8
			c-0.1-0.1-0.1-0.1,0-0.2c0.5-0.2,1-0.4,1.5-0.7c0.1,0,0.2-0.1,0.2,0c2.3,0.8,4.6,1.5,7,2.3c0.1,0,0.2,0,0.3,0
			C102.4,9,110,5.4,117.5,1.8c0.7-0.3,1.4-0.5,2.2-0.6c0.7-0.1,1.4-0.1,2.1,0c0.8,0.1,1.5,0.2,2.1,0.6c0.5,0.3,0.7,0.7,0.9,1.2
			c0.1,0.4,0,0.8-0.2,1.1c-0.4,0.8-1,1.4-1.6,1.9c-0.6,0.4-1.3,0.7-2,1c-2.1,1-4.3,2-6.4,3.1c-0.1,0-0.1,0.1-0.2,0.2
			c-1.9,5.3-3.8,10.7-5.7,16c-0.1,0.4-0.4,0.6-0.6,0.9c0,0-0.1,0-0.1,0.1c-0.9,0.4-1.8,0.8-2.7,1.3c-0.1,0-0.1,0.1-0.2,0.1
			c-0.1,0.1-0.2,0.1-0.3-0.1c-0.1-0.1-0.1-0.3-0.1-0.4c0.1-1.1,0.2-2.1,0.3-3.2c0.1-1.1,0.2-2.1,0.3-3.2c0.1-1.2,0.2-2.3,0.4-3.5
			c0.1-1.2,0.2-2.3,0.4-3.5C106.1,14.6,106.2,14.4,106.2,14.2z"/>
		<path class="st1" d="M106.7,5.1c-0.5,0.2-1,0.5-1.6,0.7c-1.5,0.7-3.1,1.4-4.6,2.2c-0.1,0-0.1,0-0.2,0c-2-1.3-3.9-2.5-5.9-3.8
			c-0.2-0.2-0.3-0.4-0.1-0.6c0,0,0.1-0.1,0.1-0.1C95.3,3,96.1,2.6,97,2.2c0,0,0.1,0,0.1,0c0.4,0,0.7-0.1,1.1,0
			c2.8,0.9,5.6,1.9,8.4,2.9C106.6,5,106.6,5,106.7,5.1z"/>
	</g>
</g>
</svg>
