<?xml version="1.0" encoding="utf-8"?>
<!-- Generator: Adobe Illustrator 21.0.2, SVG Export Plug-In . SVG Version: 6.00 Build 0)  -->
<svg version="1.1" id="Capa_1" xmlns="http://www.w3.org/2000/svg" xmlns:xlink="http://www.w3.org/1999/xlink" x="0px" y="0px"
	 viewBox="0 0 97.8 97.8" style="enable-background:new 0 0 97.8 97.8;" xml:space="preserve">
<style type="text/css">
	.st0{fill:#FFFFFF;}
</style>
<g>
	<g>
		<polygon class="st0" points="25.7,52.5 29.6,52.5 29.6,73.5 33.2,73.5 33.2,52.5 37.2,52.5 37.2,49 25.7,49 		"/>
		<path class="st0" d="M56.7,55c-1.2,0-2.3,0.7-3.4,2v-8H50v24.4h3.3v-1.8c1.1,1.4,2.2,2,3.4,2c1.3,0,2.2-0.7,2.6-2
			c0.2-0.8,0.3-2,0.3-3.7v-7.2c0-1.7-0.1-2.9-0.3-3.7C58.9,55.7,58,55,56.7,55z M56.3,68.3c0,1.6-0.5,2.5-1.4,2.5
			c-0.5,0-1.1-0.3-1.6-0.8V58.8c0.6-0.5,1.1-0.8,1.6-0.8c1,0,1.4,0.8,1.4,2.5V68.3z"/>
		<path class="st0" d="M43.8,69.2c-0.7,1-1.4,1.5-2.1,1.5c-0.4,0-0.7-0.3-0.8-0.8c0-0.1,0-0.5,0-1.3V55.3h-3.3v14.4
			c0,1.3,0.1,2.2,0.3,2.7c0.3,0.9,1.1,1.4,2.1,1.4c1.2,0,2.5-0.7,3.8-2.2v2h3.3V55.3h-3.3V69.2z"/>
		<path class="st0" d="M46.7,38.5c1.1,0,1.6-0.9,1.6-2.6v-7.7c0-1.7-0.5-2.5-1.6-2.5c-1.1,0-1.6,0.8-1.6,2.5v7.7
			C45.1,37.6,45.6,38.5,46.7,38.5z"/>
		<path class="st0" d="M48.9,0C21.9,0,0,21.9,0,48.9s21.9,48.9,48.9,48.9s48.9-21.9,48.9-48.9S75.9,0,48.9,0z M54.3,22.9h3.3v13.5
			c0,0.8,0,1.2,0,1.3c0.1,0.5,0.3,0.8,0.8,0.8c0.7,0,1.4-0.5,2.1-1.6v-14h3.3v18.4h-3.3v-2c-1.3,1.5-2.6,2.3-3.8,2.3
			c-1.1,0-1.8-0.4-2.1-1.4c-0.2-0.6-0.3-1.4-0.3-2.7V22.9L54.3,22.9z M41.7,28.9c0-2,0.3-3.4,1-4.3c0.9-1.3,2.2-1.9,3.9-1.9
			c1.7,0,3,0.6,3.9,1.9c0.7,0.9,1,2.4,1,4.3v6.4c0,2-0.3,3.4-1,4.3c-0.9,1.3-2.2,1.9-3.9,1.9c-1.7,0-3-0.6-3.9-1.9
			c-0.7-0.9-1-2.4-1-4.3V28.9z M32.8,16.6l2.6,9.7l2.5-9.7h3.7l-4.4,14.7v10h-3.7v-10c-0.3-1.8-1.1-4.4-2.3-7.8
			c-0.8-2.3-1.6-4.6-2.4-6.9C28.9,16.6,32.8,16.6,32.8,16.6z M75.2,75.1c-0.7,2.9-3,5-5.9,5.4c-6.8,0.8-13.6,0.8-20.4,0.8
			c-6.8,0-13.7,0-20.4-0.8c-2.9-0.3-5.2-2.5-5.9-5.4c-1-4.1-1-8.6-1-12.9s0-8.8,1-12.9c0.7-2.9,3-5,5.9-5.4
			c6.8-0.8,13.6-0.8,20.4-0.8c6.8,0,13.7,0,20.4,0.8c2.9,0.3,5.2,2.5,5.9,5.4c0.9,4.1,0.9,8.6,0.9,12.9S76.1,70.9,75.2,75.1z"/>
		<path class="st0" d="M67.2,55c-1.7,0-3,0.6-3.9,1.9c-0.7,0.9-1,2.3-1,4.3v6.4c0,1.9,0.4,3.4,1.1,4.3c1,1.2,2.3,1.9,4,1.9
			c1.7,0,3.1-0.7,4-2c0.4-0.6,0.7-1.2,0.8-2c0-0.3,0.1-1.1,0.1-2.1v-0.5h-3.4c0,1.3,0,2.1-0.1,2.2c-0.2,0.9-0.7,1.3-1.5,1.3
			c-1.1,0-1.7-0.8-1.7-2.5V65h6.6v-3.8c0-1.9-0.3-3.4-1-4.3C70.1,55.7,68.8,55,67.2,55z M68.8,62.2h-3.3v-1.7c0-1.7,0.6-2.5,1.7-2.5
			c1.1,0,1.6,0.8,1.6,2.5V62.2z"/>
	</g>
</g>
</svg>
